# xmcd
#
# Track frame offsets: 
#        150
#        14712
#        28152
#        41807
#        54351
#        67414
#        88169
#        101732
#        116860
#        132870
#
# Disc length: 1899 seconds
#
# Revision: 0
# Processed by: cddbd v1.5.2PL0 Copyright (c) Steve Scherf et al.
# Submitted via: ExactAudioCopy v1.3
#
DISCID=9807690a
DTITLE=Erin Harpe and The Delta Swingers - The Christmas Swing
DYEAR=2018
DGENRE=Blues, Swing
TTITLE0=Jingle Bell Blues
TTITLE1=Merry Christmas
TTITLE2=The Night Before Christmas
TTITLE3=At The Christmas Ball
TTITLE4=Merry Christmas (Here I Come)
TTITLE5=The Christmas Swing
TTITLE6=Christmas is A-Comin'
TTITLE7=Drink And Get Drunk
TTITLE8=Run Run Rudolph
TTITLE9=Auld Lang Syne
EXTD=
EXTT0=
EXTT1=
EXTT2=
EXTT3=
EXTT4=
EXTT5=
EXTT6=
EXTT7=
EXTT8=
EXTT9=
PLAYORDER=
